<svg xmlns="http://www.w3.org/2000/svg" viewBox="0 0 220 90" role="img" aria-labelledby="title">
  <title id="title">SK Engineering</title>
  <rect width="220" height="90" rx="12" fill="#ffffff"/>
  <g transform="translate(12 10)">
    <g transform="translate(0 2)">
      <path d="M34 0c18 0 32 14 32 32 0 8-3 16-8 22l-7-7c4-4 6-10 6-15 0-13-10-23-23-23S11 19 11 32s10 23 23 23c6 0 11-2 15-6l7 7c-6 5-14 8-22 8C16 64 2 50 2 32S16 0 34 0z" fill="#ef2b2d"/>
      <path d="M34 6c4 0 8 1 12 3l2-6 7 3-2 6c3 2 6 5 8 8l6-2 3 7-6 2c1 4 2 8 2 12s-1 8-2 12l6 2-3 7-6-2c-2 3-5 6-8 8l2 6-7 3-2-6c-4 2-8 3-12 3s-8-1-12-3l-2 6-7-3 2-6c-3-2-6-5-8-8l-6 2-3-7 6-2c-1-4-2-8-2-12s1-8 2-12l-6-2 3-7 6 2c2-3 5-6 8-8l-2-6 7-3 2 6c4-2 8-3 12-3zm0 14c-7 0-12 5-12 12s5 12 12 12 12-5 12-12-5-12-12-12z" fill="#111111" opacity=".92"/>
      <path d="M33 22l5 5-7 7 11 11-5 5-11-11-7 7-5-5 7-7-11-11 5-5 11 11z" fill="#111111"/>
    </g>
    <g fill="#111111" transform="translate(74 3)">
      <rect x="0" y="0" width="12" height="58" rx="1"/>
      <path d="M22 0h16L18 25l23 33H24L8 34v24H0V0h8v22z"/>
    </g>
  </g>
</svg>
