<svg xmlns="http://www.w3.org/2000/svg" viewBox="0 0 420 140" role="img" aria-labelledby="title desc">
  <title id="title">Shree Krupa Engineering Works</title>
  <desc id="desc">SK Engineering logo for Roller ERP</desc>
  <rect width="420" height="140" fill="white"/>
  <g transform="translate(18 16)">
    <path d="M62 6c20 0 38 9 50 23l-11 10c-9-11-23-18-39-18-27 0-49 22-49 49s22 49 49 49c14 0 27-6 36-16V84H64V69h50v40c-13 16-33 26-54 26-35 0-64-29-64-65S27 6 62 6z" fill="#e32026"/>
    <path d="M62 18c29 0 52 23 52 52 0 22-14 42-34 49l-7-15c15-5 26-19 26-34 0-20-17-37-37-37-20 0-37 17-37 37 0 15 9 28 23 34l-7 15C24 111 10 91 10 70c0-29 23-52 52-52z" fill="#111"/>
    <path d="M59 50l9 9-12 12 18 18-9 9-18-18-12 12-9-9 12-12-18-18 9-9 18 18z" fill="#111"/>
  </g>
  <g fill="#111">
    <path d="M160 26h26v34l34-34h33l-42 40 45 47h-35l-35-38v38h-26z"/>
    <rect x="146" y="26" width="10" height="87" fill="#111"/>
    <text x="154" y="135" font-family="Arial, Helvetica, sans-serif" font-size="26" font-weight="700" letter-spacing="1">SHREE KRUPA ENGINEERING WORKS</text>
    <text x="182" y="116" font-family="Arial, Helvetica, sans-serif" font-size="24" font-weight="700">ENGINEERING</text>
  </g>
</svg>
